<?xml version="1.0" encoding="UTF-8" standalone="no"?>
<svg
   xmlns:dc="http://purl.org/dc/elements/1.1/"
   xmlns:cc="http://creativecommons.org/ns#"
   xmlns:rdf="http://www.w3.org/1999/02/22-rdf-syntax-ns#"
   xmlns:svg="http://www.w3.org/2000/svg"
   xmlns="http://www.w3.org/2000/svg"
   xmlns:sodipodi="http://sodipodi.sourceforge.net/DTD/sodipodi-0.dtd"
   xmlns:inkscape="http://www.inkscape.org/namespaces/inkscape"
   width="512"
   height="512"
   version="1.1"
   id="svg10"
   sodipodi:docname="icon.svg"
   inkscape:version="1.0.1 (3bc2e813f5, 2020-09-07)">
  <metadata
     id="metadata16">
    <rdf:RDF>
      <cc:Work
         rdf:about="">
        <dc:format>image/svg+xml</dc:format>
        <dc:type
           rdf:resource="http://purl.org/dc/dcmitype/StillImage" />
      </cc:Work>
    </rdf:RDF>
  </metadata>
  <defs
     id="defs14" />
  <sodipodi:namedview
     pagecolor="#ffffff"
     bordercolor="#666666"
     borderopacity="1"
     objecttolerance="10"
     gridtolerance="10"
     guidetolerance="10"
     inkscape:pageopacity="0"
     inkscape:pageshadow="2"
     inkscape:window-width="1858"
     inkscape:window-height="1057"
     id="namedview12"
     showgrid="false"
     inkscape:zoom="1.2291505"
     inkscape:cx="178.07945"
     inkscape:cy="335.85953"
     inkscape:window-x="-8"
     inkscape:window-y="-8"
     inkscape:window-maximized="1"
     inkscape:current-layer="svg10"
     inkscape:document-rotation="0" />
  <path
     d="m 203.84294,110.89403 c -30.20577,2.84193 -55.32084,22.86986 -65.36768,52.21679 l -1.71755,4.95615 -7.00474,3.50414 c -10.37788,5.15607 -25.90841,8.72584 -38.269387,8.72584 -2.776427,0 -4.825027,0.33178 -5.749353,0.99289 -2.314264,1.58655 -3.831768,6.60808 -3.831768,12.5576 0,4.42836 0.265673,5.88379 1.852101,8.98783 2.379757,4.89052 7.270286,9.3845 13.21969,12.16093 10.377877,4.89065 33.775407,10.50889 46.926177,11.30223 l 7.00485,0.46277 2.97294,3.43852 c 4.49397,5.2217 6.34607,8.26368 6.34607,10.37789 0,3.30409 -2.64531,7.27028 -8.19462,12.42647 -18.11046,16.72041 -24.52204,24.52192 -29.80923,35.95513 -20.55559,44.41529 9.12239,97.49092 66.49195,118.90535 23.85969,8.92246 48.3161,12.36099 78.32182,10.97105 69.86508,-3.10747 116.72564,-29.01589 139.46107,-76.93532 8.32917,-17.58267 12.49198,-36.22067 13.28531,-58.82498 0.9929,-30.66794 -4.55947,-62.39464 -11.63326,-66.02977 -2.71081,-1.38993 -7.27041,-1.32101 -11.30222,0.19588 -1.85197,0.72722 -7.998,3.76613 -13.74736,6.87362 -21.08339,11.43333 -40.3181,17.91041 -63.38788,21.41443 -9.8468,1.45543 -29.74373,1.45543 -36.87959,0 -6.87361,-1.45543 -13.21969,-4.55948 -14.54057,-7.13929 -0.98922,-1.78305 -0.92433,-2.17971 0.33056,-5.02507 0.79333,-1.71755 3.10747,-5.81485 5.22169,-9.12239 4.69403,-7.2049 6.60819,-11.03666 8.92234,-17.51717 6.87373,-19.03466 6.14602,-40.91127 -1.9176,-57.96614 -3.56964,-7.60146 -6.0149,-11.23673 -11.50214,-16.98608 -7.47046,-7.79795 -16.32386,-13.15419 -27.76052,-16.92046 -10.11563,-3.29711 -26.43949,-5.01466 -37.74171,-3.95932 z m 22.0731,11.30209 c 15.86169,2.11422 30.73355,9.8468 38.86255,20.22456 8.26366,10.64 11.89893,21.6801 11.89893,36.55184 0.0612,14.80624 -2.77642,24.85308 -10.509,37.47605 -6.54257,10.64001 -7.998,13.41643 -8.72583,16.85496 -2.31415,10.37788 6.34619,18.96917 22.73885,22.47332 5.48724,1.19 8.79134,1.38637 19.82801,1.38637 15.53395,0 26.30495,-1.38637 42.3667,-5.48723 17.2515,-4.36287 26.90155,-8.39468 53.01,-21.94553 7.79808,-4.03181 7.27041,-4.22843 9.319,3.43864 4.49398,16.58929 5.94941,48.18498 3.03855,67.0851 -7.79807,51.22709 -39.65589,86.52342 -90.81379,100.53645 -27.36384,7.47034 -63.71564,9.84667 -90.81393,5.88379 -45.73972,-6.74262 -83.61244,-32.78203 -95.70787,-65.82972 -2.84193,-7.66696 -3.90069,-14.01303 -3.90069,-22.73532 0,-17.58267 7.2704,-33.24432 22.01103,-47.25734 20.02793,-18.96905 21.61448,-21.08327 22.14214,-29.60906 0.33179,-5.15618 -1.38637,-9.05687 -7.13929,-15.86157 l -3.96618,-4.75964 1.98309,-5.88379 c 2.64531,-7.79807 3.10748,-12.82314 1.71755,-16.98607 -0.59255,-1.8521 -3.76626,-6.87362 -7.4014,-11.82989 -10.04673,-13.55073 -9.91572,-13.28519 -6.21153,-22.60419 4.49397,-11.1056 13.15419,-22.47331 22.60431,-29.60905 14.01303,-10.58479 31.79232,-14.35448 53.6688,-11.51268 z m -84.00557,62.26363 c 1.71756,2.64531 5.09057,7.40142 7.47034,10.70894 4.1628,5.68386 4.36285,6.08053 4.03181,8.92233 -0.20078,1.65217 -1.05901,4.95615 -1.85209,7.40153 l -1.52094,4.49385 h -2.84193 c -11.8988,0 -41.17681,-7.20478 -48.647146,-12.02981 -3.83531,-2.44538 -6.411568,-6.54257 -6.411568,-10.24676 v -2.64543 l 7.797954,-0.72722 c 4.23186,-0.46156 9.98121,-1.25538 12.69214,-1.85197 6.28045,-1.32101 17.51362,-5.0252 21.61449,-7.13942 1.71742,-0.92433 3.50402,-1.65193 3.83163,-1.65193 0.39667,0.007 2.05214,2.12108 3.83531,4.76639 z"
     id="path4"
     style="fill:#ffd42a;stroke-width:0.0344894" />
  <g
     aria-label="[ ]"
     transform="matrix(13.007886,0,0,11.52278,-41.031394,-3.533751)"
     id="text848"
     style="font-style:normal;font-variant:normal;font-weight:normal;font-stretch:normal;font-size:42.4996px;line-height:1.25;font-family:sans-serif;-inkscape-font-specification:sans-serif;letter-spacing:0px;word-spacing:0px;fill:#000000;fill-opacity:1;stroke:none;stroke-width:1.06249">
    <path
       d="M 3.2353265,3.4211036 H 12.034072 V 6.3886049 H 7.0536499 V 38.346312 h 4.9804221 v 2.967501 H 3.2353265 Z"
       style="stroke-width:1.06249"
       id="path873" />
    <path
       d="M 42.60141,3.4211036 V 41.313813 h -8.798745 v -2.967501 h 4.95967 V 6.3886049 h -4.95967 V 3.4211036 Z"
       style="stroke-width:1.06249"
       id="path875" />
  </g>
  <path
     style="fill:#ffffff;stroke-width:2.24857"
     d="m 215.25743,403.696 c -20.48766,-4.4002 -49.35675,-19.23055 -62.66153,-32.18996 -6.10477,-5.94611 -13.96185,-16.28591 -17.46049,-22.97723 -5.43336,-10.39209 -6.36272,-14.78922 -6.373,-30.15472 -0.0122,-22.06269 2.74655,-27.82405 23.71584,-49.4804 8.38867,-8.66351 16.30806,-18.52916 17.59859,-21.92349 2.58176,-6.79061 0.26933,-15.63361 -5.85858,-22.40499 -2.87473,-3.17665 -3.08004,-5.55372 -1.1398,-13.19778 2.75378,-10.84911 2.21007,-12.76904 -8.00779,-28.27704 l -7.65116,-11.61232 4.36297,-9.86332 c 6.13428,-13.86733 17.29522,-25.78439 30.6683,-32.74554 9.79232,-5.09731 14.22814,-5.95504 30.71434,-5.93949 16.5435,0.0122 21.09906,0.91331 32.20589,6.34767 31.97693,15.64474 39.19971,49.23823 18.99622,88.35163 -9.24885,17.9054 -9.55026,19.09197 -6.33101,24.92005 6.17773,11.18432 18.25064,15.15688 44.91541,14.7793 27.85771,-0.39421 52.78376,-6.86614 80.90702,-21.00613 9.79219,-4.92345 18.34834,-8.07084 19.01374,-6.9942 0.66478,1.07614 2.21387,8.90421 3.44133,17.39462 6.41806,44.3968 -1.87511,82.20586 -24.64679,112.36669 -10.07879,13.34922 -33.23709,29.51295 -52.39492,36.56996 -29.8555,10.9975 -82.83968,14.73229 -114.01458,8.03669 z"
     id="path860" />
  <path
     style="fill:#ffffff;stroke-width:2.24857"
     d="m 211.24495,402.65352 c -34.15959,-8.94976 -65.45607,-31.30603 -77.06166,-55.04807 -4.45566,-9.11515 -5.48565,-14.64708 -5.44218,-29.23136 0.0612,-22.03772 2.24459,-26.52067 24.7932,-51.00806 14.44961,-15.69213 16.7449,-19.30854 16.7018,-26.31487 -0.0245,-4.5165 -1.97685,-10.61846 -4.39015,-13.74405 -3.53047,-4.57282 -4.10527,-7.92858 -3.08104,-17.98865 1.17041,-11.50177 0.69172,-13.18932 -6.85268,-24.11789 -4.46154,-6.46286 -8.11186,-12.8273 -8.11186,-14.14317 0,-4.65019 9.28974,-20.5158 17.02759,-29.08065 27.04551,-29.93617 85.46441,-24.96608 104.36575,8.879 4.72733,8.46493 5.65081,13.07179 5.65081,28.19084 0,16.79668 -0.68561,19.44982 -9.71433,37.59003 -8.91646,17.91458 -9.47044,20.013 -6.74568,25.54737 5.33164,10.82916 15.76559,14.35448 42.48595,14.35448 29.32649,0 50.50659,-5.01859 79.85658,-18.92179 11.60107,-5.49544 21.56318,-9.23049 22.13836,-8.29991 2.30654,3.73222 5.73368,31.52726 5.71299,46.33448 -0.0489,30.95564 -11.25826,65.09907 -28.1562,85.72078 -9.58675,11.69937 -33.68762,27.85478 -51.15019,34.28728 -32.04305,11.80332 -87.1969,15.07167 -118.02706,6.99421 z"
     id="path862" />
  <path
     style="fill:#ffffff;stroke-width:2.24857"
     d="m 211.45933,402.85234 c -53.94793,-14.62198 -86.52183,-49.31939 -83.35363,-88.7876 1.27338,-15.86304 7.14859,-28.74079 17.52538,-38.41349 13.27711,-12.37616 24.65535,-28.2998 24.64653,-34.49259 -0.005,-3.2899 -1.98591,-9.22498 -4.40301,-13.18909 -3.46986,-5.69084 -4.11175,-9.59606 -3.05042,-18.55732 1.23444,-10.42367 0.66111,-12.37799 -7.02298,-23.95164 -5.84743,-8.80676 -7.98356,-14.13043 -7.09326,-17.67767 2.18302,-8.69805 15.52564,-26.56916 25.46608,-34.10965 17.24991,-13.08502 47.17373,-15.27403 70.10909,-5.12864 22.26285,9.84789 30.53681,23.85675 30.44217,51.54246 -0.0612,17.86034 -0.67948,20.34624 -9.44657,37.9354 -8.8037,17.66371 -9.18409,19.20399 -6.17774,25.01774 4.72329,9.13365 17.85691,13.49822 40.61818,13.49822 30.66978,0 58.83074,-7.3457 91.36595,-23.83251 5.81118,-2.94478 11.09299,-4.50121 11.73733,-3.45873 3.33801,5.40093 6.2223,37.56702 5.06842,56.5226 -2.55387,41.9535 -17.99587,72.27386 -47.54885,93.36239 -27.35404,19.51948 -49.946,25.78121 -97.86457,27.12449 -29.59583,0.83006 -37.29106,0.31586 -51.0181,-3.40437 z"
     id="path864" />
  <path
     style="fill:#ffd42a;stroke-width:2.24857"
     d="m 220.2203,411.40287 c -55.74849,-12.03018 -98.07564,-57.35255 -95.27484,-98.00953 1.20102,-17.43503 4.70369,-29.98956 18.73104,-45.04984 23.68194,-25.42604 27.07601,-26.26932 18.68612,-38.78787 -3.70529,-5.52874 -4.26259,-11.13743 -3.08947,-20.8744 1.32907,-11.03141 0.2877,-12.19362 -7.26931,-23.57541 -4.47611,-6.74152 -8.129,-14.09996 -8.11737,-15.66484 0.0489,-5.94022 14.20805,-26.81732 23.42177,-34.70378 18.33487,-15.69409 53.61406,-20.63102 78.96567,-9.7251 31.69058,13.63289 45.36448,52.67688 26.57589,89.98595 -9.96995,19.79776 -16.9469,25.90118 -8.11308,33.33429 8.43004,7.0935 21.82065,9.22902 47.00808,7.49666 24.67703,-1.69735 55.49763,-31.56142 85.43637,-28.64615 l 3.83079,-4.57687 5.83469,1.12635 c 0,0 10.52884,66.88064 6.69879,84.82631 -10.13609,47.49351 -43.30853,82.34115 -92.85456,94.6796 -16.77097,4.17652 -86.3279,11.21652 -100.47058,8.16463 z"
     id="path866"
     sodipodi:nodetypes="ssssssssssssscsssss" />
</svg>
