<?xml version="1.0" encoding="UTF-8" standalone="no"?>
<svg
   xmlns:dc="http://purl.org/dc/elements/1.1/"
   xmlns:cc="http://creativecommons.org/ns#"
   xmlns:rdf="http://www.w3.org/1999/02/22-rdf-syntax-ns#"
   xmlns:svg="http://www.w3.org/2000/svg"
   xmlns="http://www.w3.org/2000/svg"
   xmlns:sodipodi="http://sodipodi.sourceforge.net/DTD/sodipodi-0.dtd"
   xmlns:inkscape="http://www.inkscape.org/namespaces/inkscape"
   width="160"
   height="44"
   version="1.1"
   id="svg24"
   sodipodi:docname="logo.svg"
   inkscape:version="1.0.1 (3bc2e813f5, 2020-09-07)">
  <metadata
     id="metadata30">
    <rdf:RDF>
      <cc:Work
         rdf:about="">
        <dc:format>image/svg+xml</dc:format>
        <dc:type
           rdf:resource="http://purl.org/dc/dcmitype/StillImage" />
      </cc:Work>
    </rdf:RDF>
  </metadata>
  <defs
     id="defs28" />
  <sodipodi:namedview
     pagecolor="#ffffff"
     bordercolor="#666666"
     borderopacity="1"
     objecttolerance="10"
     gridtolerance="10"
     guidetolerance="10"
     inkscape:pageopacity="0"
     inkscape:pageshadow="2"
     inkscape:window-width="1801"
     inkscape:window-height="822"
     id="namedview26"
     showgrid="false"
     inkscape:zoom="5.4447222"
     inkscape:cx="65.427192"
     inkscape:cy="33.295681"
     inkscape:window-x="148"
     inkscape:window-y="72"
     inkscape:window-maximized="0"
     inkscape:current-layer="svg24"
     inkscape:document-rotation="0" />
  <g
     aria-label="JO"
     id="text870"
     style="font-style:normal;font-variant:normal;font-weight:normal;font-stretch:normal;font-size:40px;line-height:1.25;font-family:'Miriam CLM';-inkscape-font-specification:'Miriam CLM';letter-spacing:0px;word-spacing:0px;fill:#000000;fill-opacity:1;stroke:none;stroke-width:1">
    <path
       d="m 57.228985,4.083065 h 3.945312 v 27.128906 q 0,5.273438 -2.011718,7.65625 -1.992188,2.382813 -6.425782,2.382813 h -1.503906 v -3.320313 h 1.230469 q 2.617187,0 3.691406,-1.464843 1.074219,-1.464844 1.074219,-5.253907 z"
       style="font-style:normal;font-variant:normal;font-weight:normal;font-stretch:normal;font-family:'Miriam CLM';-inkscape-font-specification:'Miriam CLM';fill:#b3b3b3;stroke-width:1"
       id="path856" />
    <path
       d="m 80.861797,6.7588463 q -4.296875,0 -6.835937,3.203125 -2.519531,3.2031247 -2.519531,8.7304687 0,5.507813 2.519531,8.710938 2.539062,3.203125 6.835937,3.203125 4.296875,0 6.796875,-3.203125 2.519532,-3.203125 2.519532,-8.710938 0,-5.527344 -2.519532,-8.7304687 -2.5,-3.203125 -6.796875,-3.203125 z m 0,-3.203125 q 6.132813,0 9.804688,4.1210937 3.671875,4.101563 3.671875,11.015625 0,6.894531 -3.671875,11.015625 -3.671875,4.101563 -9.804688,4.101563 -6.152343,0 -9.84375,-4.101563 -3.671875,-4.101562 -3.671875,-11.015625 0,-6.914062 3.671875,-11.015625 3.691407,-4.1210937 9.84375,-4.1210937 z"
       style="font-style:normal;font-variant:normal;font-weight:normal;font-stretch:normal;font-family:'Miriam CLM';-inkscape-font-specification:'Miriam CLM';fill:#b3b3b3;stroke-width:1"
       id="path858" />
  </g>
  <text
     xml:space="preserve"
     style="font-style:normal;font-variant:normal;font-weight:normal;font-stretch:normal;font-size:40px;line-height:1.25;font-family:'OCR A Extended';-inkscape-font-specification:'OCR A Extended';letter-spacing:0px;word-spacing:0px;fill:#000000;fill-opacity:1;stroke:none;stroke-width:1"
     x="94.219681"
     y="-16.529757"
     id="text905"><tspan
       sodipodi:role="line"
       id="tspan903"
       x="94.219681"
       y="-16.529757"
       style="stroke-width:1" /></text>
  <g
     aria-label="EL"
     id="text870-6"
     style="font-style:normal;font-variant:normal;font-weight:normal;font-stretch:normal;font-size:40px;line-height:1.25;font-family:'Miriam CLM';-inkscape-font-specification:'Miriam CLM';letter-spacing:0px;word-spacing:0px;fill:#000000;fill-opacity:1;stroke:none;stroke-width:1">
    <path
       d="m 115.00823,4.0833244 h 18.4375 v 3.3203125 h -14.49219 v 8.6328121 h 13.88672 v 3.320313 h -13.88672 v 10.566406 h 14.84375 v 3.320313 h -18.78906 z"
       style="font-style:normal;font-variant:normal;font-weight:normal;font-stretch:normal;font-family:'Miriam CLM';-inkscape-font-specification:'Miriam CLM';fill:#b3b3b3;stroke-width:1"
       id="path861" />
    <path
       d="m 140.28167,4.0833244 h 3.94531 V 29.923168 h 14.19922 v 3.320313 h -18.14453 z"
       style="font-style:normal;font-variant:normal;font-weight:normal;font-stretch:normal;font-family:'Miriam CLM';-inkscape-font-specification:'Miriam CLM';fill:#b3b3b3;stroke-width:1"
       id="path863" />
  </g>
  <text
     xml:space="preserve"
     style="font-style:normal;font-variant:normal;font-weight:normal;font-stretch:normal;font-size:32.93px;line-height:1.25;font-family:Rubik;-inkscape-font-specification:Rubik;letter-spacing:0px;word-spacing:0px;fill:#ffcc00;fill-opacity:1;stroke:none;stroke-width:0.823247"
     x="96.026657"
     y="29.038555"
     id="text930"><tspan
       sodipodi:role="line"
       id="tspan928"
       x="96.026657"
       y="29.038555"
       style="font-style:normal;font-variant:normal;font-weight:normal;font-stretch:normal;font-family:Rubik;-inkscape-font-specification:Rubik;fill:#ffcc00;stroke-width:0.823247">-</tspan></text>
  <path
     d="m 20.00144,9.3465163 c -2.467218,0.232128 -4.518629,1.8680187 -5.339252,4.2650927 l -0.140292,0.404817 -0.572156,0.286218 c -0.847665,0.421155 -2.116205,0.712728 -3.125855,0.712728 -0.226779,0 -0.394113,0.02707 -0.469611,0.08113 -0.189027,0.129588 -0.312981,0.539754 -0.312981,1.025709 0,0.361716 0.02169,0.480594 0.151281,0.734135 0.194377,0.399463 0.593844,0.766533 1.079793,0.993312 0.847665,0.399462 2.758791,0.858369 3.832949,0.923163 l 0.572156,0.03778 0.242832,0.280864 c 0.367071,0.42651 0.518347,0.674976 0.518347,0.847665 0,0.26988 -0.21607,0.593844 -0.669342,1.015005 -1.479261,1.365731 -2.002962,2.002956 -2.434821,2.936828 -1.678997,3.627863 0.74512,7.963105 5.431088,9.71224 1.948872,0.728787 3.946479,1.00965 6.397358,0.896121 5.706608,-0.253821 9.534202,-2.370027 11.391237,-6.284108 0.680331,-1.43616 1.020354,-2.958522 1.085148,-4.804853 0.08113,-2.504969 -0.37242,-5.09642 -0.950205,-5.393342 -0.221424,-0.113529 -0.59385,-0.107895 -0.923168,0.01604 -0.151276,0.05944 -0.653284,0.307626 -1.122895,0.561447 -1.722098,0.933872 -3.293195,1.462922 -5.177552,1.74914 -0.804284,0.118879 -2.429471,0.118879 -3.012332,0 -0.561447,-0.118884 -1.079793,-0.372419 -1.187687,-0.58314 -0.08085,-0.145646 -0.0755,-0.178043 0.02702,-0.410451 0.06479,-0.140292 0.253821,-0.474965 0.42651,-0.745125 0.383409,-0.588495 0.539759,-0.901475 0.728786,-1.430805 0.561447,-1.554759 0.502008,-3.341651 -0.15663,-4.734704 -0.291573,-0.620892 -0.491304,-0.917814 -0.939507,-1.387425 -0.610182,-0.636945 -1.333334,-1.0744437 -2.267486,-1.3820687 -0.826252,-0.269315 -2.159592,-0.409607 -3.082755,-0.323405 z m 1.802945,0.9231627 c 1.295589,0.172688 2.510324,0.804284 3.174311,1.651949 0.674982,0.869078 0.971904,1.770833 0.971904,2.985569 0.0054,1.209381 -0.226779,2.030004 -0.858374,3.061062 -0.534405,0.869078 -0.653284,1.095851 -0.712728,1.376715 -0.189027,0.84767 0.518351,1.549409 1.85732,1.835627 0.448198,0.09719 0.718077,0.113244 1.619553,0.113244 1.26882,0 2.148602,-0.113244 3.460529,-0.448197 1.409112,-0.356367 2.197338,-0.685686 4.329882,-1.792521 0.63695,-0.329319 0.593849,-0.345378 0.761183,0.280863 0.367071,1.355028 0.485949,3.935774 0.248187,5.479544 -0.636945,4.184246 -3.239105,7.06727 -7.417712,8.211857 -2.235089,0.610182 -5.204314,0.804284 -7.417716,0.480594 -3.736038,-0.550743 -6.829502,-2.677652 -7.817459,-5.377003 -0.232128,-0.626241 -0.318615,-1.144587 -0.318615,-1.85703 0,-1.43616 0.593849,-2.71541 1.797876,-3.859997 1.63589,-1.549404 1.765478,-1.722093 1.808579,-2.418482 0.02707,-0.421155 -0.113244,-0.73977 -0.58314,-1.295583 l -0.323964,-0.388764 0.161979,-0.480594 c 0.216075,-0.63695 0.253821,-1.047402 0.140292,-1.387425 -0.04843,-0.15128 -0.307626,-0.561447 -0.604548,-0.966269 -0.820623,-1.106835 -0.809919,-1.085148 -0.507362,-1.846326 0.36707,-0.907109 1.074444,-1.835627 1.846331,-2.418482 1.144587,-0.864568 2.596806,-1.17248 4.383692,-0.940351 z m -6.861613,5.085716 c 0.140291,0.216074 0.4158,0.604553 0.610182,0.874712 0.340023,0.464257 0.356361,0.496654 0.329319,0.728782 -0.01636,0.134942 -0.08649,0.404816 -0.151276,0.604553 l -0.124238,0.367065 h -0.232128 c -0.971898,0 -3.363338,-0.588489 -3.973521,-0.982602 -0.313265,-0.199737 -0.5237,-0.534405 -0.5237,-0.836961 v -0.216075 l 0.636944,-0.05944 c 0.345663,-0.03772 0.815274,-0.10254 1.036698,-0.151275 0.512992,-0.1079 1.43052,-0.410457 1.765479,-0.583146 0.140286,-0.0755 0.286213,-0.134937 0.312975,-0.134937 0.0324,5.38e-4 0.167619,0.173254 0.313266,0.389324 z"
     id="path4"
     style="fill:#ffd42a;stroke-width:0.00281711" />
  <g
     aria-label="[ ]"
     transform="scale(1.0624897,0.94118559)"
     id="text848"
     style="font-style:normal;font-variant:normal;font-weight:normal;font-stretch:normal;font-size:42.4996px;line-height:1.25;font-family:sans-serif;-inkscape-font-specification:sans-serif;letter-spacing:0px;word-spacing:0px;fill:#000000;fill-opacity:1;stroke:none;stroke-width:1.06249">
    <path
       d="M 3.2353265,3.4211036 H 12.034072 V 6.3886049 H 7.0536499 V 38.346312 h 4.9804221 v 2.967501 H 3.2353265 Z"
       style="stroke-width:1.06249"
       id="path873" />
    <path
       d="M 42.60141,3.4211036 V 41.313813 h -8.798745 v -2.967501 h 4.95967 V 6.3886049 h -4.95967 V 3.4211036 Z"
       style="stroke-width:1.06249"
       id="path875" />
  </g>
  <path
     style="fill:#ffffff;stroke-width:0.183664"
     d="m 20.933787,33.262704 c -1.673442,-0.359414 -4.031479,-1.570761 -5.118226,-2.629285 -0.498634,-0.485685 -1.140412,-1.330245 -1.426174,-1.876798 -0.443803,-0.848826 -0.51971,-1.207989 -0.520552,-2.463045 -0.0012,-1.802095 0.224341,-2.272679 1.937121,-4.041581 0.68519,-0.70764 1.332047,-1.513466 1.43746,-1.790725 0.210879,-0.554653 0.02201,-1.276956 -0.478537,-1.830049 -0.23481,-0.259462 -0.251579,-0.453628 -0.0931,-1.077994 0.224931,-0.886159 0.18052,-1.042985 -0.654079,-2.309678 l -0.624949,-0.9485 0.356373,-0.80564 c 0.501046,-1.132697 1.412682,-2.106084 2.504998,-2.674674 0.79984,-0.416347 1.162162,-0.486412 2.508764,-0.485138 1.351276,0.0013 1.72338,0.07462 2.630586,0.518473 2.611887,1.277877 3.201852,4.021809 1.551623,7.216606 -0.755447,1.462522 -0.780069,1.559437 -0.517125,2.035475 0.504604,0.913545 1.490725,1.238027 3.668715,1.207186 2.275427,-0.03222 4.3114,-0.560829 6.608518,-1.715797 0.799826,-0.402145 1.498696,-0.659224 1.553046,-0.571286 0.05435,0.08794 0.180839,0.727299 0.281094,1.420803 0.524227,3.626346 -0.153159,6.714604 -2.013159,9.178156 -0.823237,1.090369 -2.714825,2.410635 -4.279644,2.98705 -2.438602,0.898279 -6.76638,1.203338 -9.312755,0.656441 z"
     id="path860" />
  <path
     style="fill:#ffffff;stroke-width:0.183664"
     d="m 20.606043,33.177554 c -2.790172,-0.731022 -5.346479,-2.557087 -6.29443,-4.496345 -0.363942,-0.744531 -0.448066,-1.196385 -0.444519,-2.387633 0.0054,-1.800055 0.18334,-2.166224 2.025116,-4.166364 1.180257,-1.28174 1.367733,-1.577123 1.364211,-2.149409 -0.0023,-0.368906 -0.161472,-0.867317 -0.358586,-1.122623 -0.28837,-0.373505 -0.335317,-0.647604 -0.251658,-1.469313 0.09565,-0.939474 0.05648,-1.07731 -0.559734,-1.969962 -0.364419,-0.527895 -0.662579,-1.047742 -0.662579,-1.155217 0,-0.379838 0.758787,-1.675739 1.39082,-2.375325 2.209088,-2.445196 6.980769,-2.039243 8.524636,0.725237 0.386137,0.691426 0.461565,1.067718 0.461565,2.302642 0,1.371964 -0.056,1.588675 -0.793471,3.07037 -0.728297,1.463269 -0.773555,1.63467 -0.550993,2.086721 0.435492,0.884536 1.287739,1.17248 3.470273,1.17248 2.395397,0 4.125401,-0.40992 6.522722,-1.545542 0.947573,-0.448869 1.761291,-0.753942 1.808264,-0.67794 0.188408,0.304852 0.468337,2.575166 0.466642,3.784627 -0.0035,2.528468 -0.919578,5.317318 -2.299807,7.001703 -0.78305,0.95561 -2.75162,2.275192 -4.177973,2.800602 -2.61729,0.964101 -7.122275,1.231064 -9.640499,0.571291 z"
     id="path862" />
  <path
     style="fill:#ffffff;stroke-width:0.183664"
     d="m 20.623552,33.193797 c -4.406492,-1.194334 -7.067134,-4.028429 -6.808359,-7.252216 0.104006,-1.295696 0.583897,-2.347559 1.431477,-3.137623 1.084481,-1.010891 2.013859,-2.311541 2.013148,-2.81737 -3.77e-4,-0.268721 -0.162218,-0.753505 -0.359645,-1.077298 -0.283419,-0.464824 -0.335854,-0.783805 -0.249164,-1.515766 0.100838,-0.851411 0.05403,-1.011039 -0.573638,-1.956379 -0.477614,-0.719338 -0.652097,-1.154183 -0.579379,-1.443916 0.178315,-0.710462 1.268138,-2.170188 2.080086,-2.786099 1.408971,-1.068789 3.853167,-1.2475853 5.726537,-0.418905 1.818434,0.80438 2.494254,1.948627 2.486533,4.210008 -0.005,1.458844 -0.05554,1.661893 -0.771602,3.098581 -0.719096,1.442785 -0.750161,1.568589 -0.504598,2.043456 0.385793,0.746042 1.458553,1.102543 3.317702,1.102543 2.50512,0 4.805324,-0.600001 7.462811,-1.946653 0.474664,-0.24053 0.906083,-0.367657 0.958711,-0.282505 0.272647,0.441153 0.508242,3.068488 0.413989,4.616791 -0.208602,3.426783 -1.469904,5.903355 -3.883808,7.625882 -2.234294,1.594359 -4.079611,2.105814 -7.99362,2.215538 -2.417404,0.06777 -3.045951,0.02583 -4.167181,-0.278069 z"
     id="path864" />
  <path
     style="fill:#ffd42a;stroke-width:0.183664"
     d="m 21.339153,33.892204 c -4.553559,-0.982633 -8.010855,-4.684576 -7.782088,-8.005459 0.0981,-1.424098 0.384196,-2.449557 1.529958,-3.679695 1.934353,-2.076802 2.211581,-2.145684 1.526295,-3.168206 -0.302654,-0.451594 -0.348179,-0.909711 -0.252357,-1.705029 0.108561,-0.901049 0.0235,-0.995983 -0.593756,-1.925648 -0.365614,-0.550655 -0.663978,-1.151689 -0.66303,-1.279512 0.0036,-0.4852 1.16052,-2.190448 1.913096,-2.834625 1.497607,-1.281897 4.379221,-1.685147 6.449952,-0.794342 2.588498,1.113541 3.705387,4.302665 2.170732,7.350083 -0.814354,1.61709 -1.384231,2.115627 -0.662685,2.722768 0.688576,0.579399 1.782319,0.753822 3.839644,0.612322 2.015626,-0.138632 4.533069,-2.577949 6.978481,-2.33983 l 0.312896,-0.373834 0.476579,0.092 c 0,0 0.859999,5.462839 0.547166,6.928644 -0.827922,3.879296 -3.537458,6.725666 -7.584406,7.733477 -1.369858,0.341136 -7.051301,0.916165 -8.206477,0.666885 z"
     id="path866"
     sodipodi:nodetypes="ssssssssssssscsssss" />
</svg>
